<svg id="Layer_1" data-name="Layer 1" xmlns="http://www.w3.org/2000/svg" viewBox="0 0 93 29"><defs><style>.cls-1,.cls-2{fill:#fff;}.cls-2{stroke:#fff;stroke-miterlimit:10;stroke-width:0.99px;}</style></defs><title>Artboard 1</title><path class="cls-1" d="M22.63,23.29c0,.83-.18,1.08-.73,1.08-1.28,0-2.18-1.9-2.18-3.68,0-.28-.38-.42-.89-.42-1,0-2.28.31-2.28,1v2c0,.92-.18,1.08-.73,1.08a2.81,2.81,0,0,1-2.73-2.86c0-1.79-.57-8.48-.76-9.09a3.19,3.19,0,0,0-.39-.57,1,1,0,0,1-.26-.57c0-.58,2.52-1.32,4.18-1.32.76,0,1.2.19,1.2.47a21.83,21.83,0,0,0-.42,3.22v4.46c0,.27.46.38,1.05.38.94,0,2.12-.36,2.12-.87,0-.68.21-3.17.21-4.8a2.51,2.51,0,0,0-.55-1.71c-.25-.34-.52-.53-.52-.85C19,9.65,20.79,9,22.45,9s1.7,2.4,1.7,3.57C24.08,17,22.63,19.72,22.63,23.29Z"/><path class="cls-1" d="M34.69,21.51a2.87,2.87,0,0,1-2.31,1.67,2.29,2.29,0,0,1-.86-.19,3.35,3.35,0,0,1-3,1.42c-2.61,0-4-1.8-4-4.44C24.52,17.14,26,15,28.79,15c2.56,0,3.67,2.58,3.67,4.84a6.12,6.12,0,0,1-.4,2.2.94.94,0,0,0,.44.13c.63,0,1.12-.7,1.49-1.39a13.49,13.49,0,0,0,1-2.06c.08-.17.17-.31.23-.31a1.53,1.53,0,0,1,.23.76A6.24,6.24,0,0,1,34.69,21.51Zm-4.77-4.8c-1,0-1.49,1.25-1.49,3.05s.38,3.07,1.49,3.07a.93.93,0,0,0,.78-.51,3.49,3.49,0,0,1-.71-2.2,2,2,0,0,1,1-2C30.8,17.3,30.43,16.71,29.92,16.71Z"/><path class="cls-1" d="M41,22.42a4,4,0,0,1-3.22,1.93c-1.8,0-4-1.19-4-5.65,0-5.84,2.59-9.24,4.54-9.24,1,0,2.12.48,2.12,2.75,0,1.73-1,5.52-3.13,6.66.06,2.12.59,3.83,1.47,3.83.69,0,1.36-.61,2-1.74a23,23,0,0,0,1-2.13c.13-.24.19-.38.26-.38a1.83,1.83,0,0,1,.23.89A6.13,6.13,0,0,1,41,22.42ZM39,11.25c-.61,0-1.74,2.71-1.74,6.37v.15c1.55-1.4,2.12-4.48,2.12-6-.07-.43-.26-.52-.45-.52Z"/><path class="cls-1" d="M47.58,22.34a4.11,4.11,0,0,1-3.63,2c-1.83,0-3.23-1.08-3.23-3.51,0-1.12.38-2.69.38-3.26,0-.15-.24-.36-.4-.57a1,1,0,0,1-.26-.57c0-.59,2.33-1.33,4-1.33.76,0,1.22.19,1.22.48a13,13,0,0,1-.88,3.07A11.77,11.77,0,0,0,44,22.21a.91.91,0,0,0,.81,1h0c.84,0,1.66-1.08,2.1-1.76a18.92,18.92,0,0,0,1.41-2.81c.06-.13.13-.21.17-.21a1.32,1.32,0,0,1,.25.82A6.29,6.29,0,0,1,47.58,22.34Zm-4.66-8.29c-.8,0-1.85-.36-1.85-1.23,0-1.2,1.75-1.9,2.88-1.9.82,0,1.87.34,1.87,1.22C45.82,13.33,44.06,14.05,42.92,14.05Z"/><path class="cls-1" d="M72,21c-.84,1.38-3,3-4.42,2.63A3.31,3.31,0,0,1,65.07,22a2.19,2.19,0,0,1-2.33,1.6c-2.2,0-3.21-1.76-3.21-4.33,0-4.37,1.76-6.19,4.2-6.19a2,2,0,0,1,2.11,1.65A5.65,5.65,0,0,1,68.27,14c.44,0,.52.11.52.65s-1.27,2.86-1.27,6.4c0,1.11,1.26,1,1.48.77,1-1,4-3.8,4-3.8A5.56,5.56,0,0,1,72,21Zm-7.78-6.65c-.66,0-1.57,2-1.57,4.78,0,1.95.29,3,.93,3,.92,0,1-1.93,1-2.41a25.73,25.73,0,0,1,.25-3.28C65.05,15,64.7,14.35,64.22,14.35Z"/><path class="cls-1" d="M86.11,21.14a5,5,0,0,1-4.54,2.58c-2.81,0-5-1.43-5-4.85,0-3.81,2.44-5.82,4.11-5.82s3.1.93,3.1,2.42c0,2-1,4.42-2.46,4.42a1.9,1.9,0,0,1-1.17-.37c.18,2.1,1,3.12,2.07,3.12s2.49-1.15,3.23-2.43a25.48,25.48,0,0,0,1.39-3c.07-.17.13-.28.18-.28s.26.24.26,1A7.6,7.6,0,0,1,86.11,21.14ZM82,14.72c-.66,0-1.81,1-1.94,3.37a1.3,1.3,0,0,0,1,.69c.92,0,1.6-2,1.6-3.24C82.65,14.91,82.3,14.72,82,14.72Z"/><path class="cls-1" d="M58.08,19.79A3.76,3.76,0,0,1,55.44,16v3.65c.31-3.29,2.23-7.2,5.68-8.06,1.84-.46,4-.06,5.89-.15a9.6,9.6,0,0,0,4.3-1.31c.53-.27-.49-3.46,0-3.71C68.41,7.93,66,7.67,62.79,7.76s-5,1.73-6.34,4.54c-1.52,3.2-2.22,9.53,1.63,11.2C57.65,23.31,58.55,20,58.08,19.79Z"/><path class="cls-1" d="M56.92,10.9a7.25,7.25,0,0,0-7.2,1.88c-1.44,1.49-1.43,3.34-1.43,5.26,0,1.57-.17,3.62,1.17,4.76a4.28,4.28,0,0,0,3.72.58,5.18,5.18,0,0,0,2.2-2.49c.53-1-.51-2.78,0-3.73-.8,1.49-1.88,2.88-3.74,2.65a3.44,3.44,0,0,1-3.32-3.38v3.48c.4-4.35,4.74-6.17,8.61-5.28-.24-.06.3-3.67,0-3.73Z"/><path class="cls-2" d="M69.16,23l.77-1.46a14,14,0,0,0,1-1.17l.59-.72L72,19.1l.43-.51.65-.82.83-1.06.72-.93.21-.26h-.27a7,7,0,0,1-1.76-.31l-.34-.09L72.16,15a1.76,1.76,0,0,0-.45-.07q-.66,0-.66.72a1.08,1.08,0,0,0,.15.55l-1.07.93a3.53,3.53,0,0,1,0-.46,2.64,2.64,0,0,1,.72-1.85,2.26,2.26,0,0,1,1.68-.79,3.72,3.72,0,0,1,.66.08l.54.09.45.06a7.63,7.63,0,0,0,1.07.13,4.05,4.05,0,0,0,1.46-.3l-.81,1.46c-.46.5-.92,1-1.4,1.61l-.73.91-.65.79-.43.52-.39.46c-.36.44-.56.68-.6.74l-.45.63c0,.07-.16.21-.34.42.34,0,.62-.05.84-.05a9.8,9.8,0,0,1,1.33.1l.6.08.57.07a3.86,3.86,0,0,0,.68,0,1.49,1.49,0,0,0,1.26-.53.47.47,0,0,1,.16.27,1.22,1.22,0,0,1-.53.9,1.78,1.78,0,0,1-1.12.44c-.23,0-.47,0-.7.06L73.39,23h-.54c-.46,0-.9-.06-1.33-.06A14.3,14.3,0,0,0,69.16,23Z"/></svg>