<svg id="Layer_1" data-name="Layer 1" xmlns="http://www.w3.org/2000/svg" viewBox="0 0 93 29"><defs><style>.cls-1{stroke:#000;stroke-miterlimit:10;stroke-width:0.99px;}</style></defs><title>Artboard 1 copy 2</title><path d="M22.63,23.29c0,.83-.18,1.08-.73,1.08-1.28,0-2.18-1.9-2.18-3.68,0-.28-.38-.42-.89-.42-1,0-2.28.31-2.28,1,0,1,0,1.08,0,2s-.18,1.08-.73,1.08a2.81,2.81,0,0,1-2.73-2.86c0-1.79-.57-8.48-.76-9.09a2.9,2.9,0,0,0-.39-.57,1,1,0,0,1-.26-.57c0-.58,2.52-1.32,4.18-1.32.76,0,1.2.19,1.2.47a22.25,22.25,0,0,0-.42,3.22c0,1.62,0,4,0,4.46,0,.27.46.38,1.05.38.94,0,2.12-.36,2.12-.87,0-.68.21-3.17.21-4.8a2.53,2.53,0,0,0-.55-1.71c-.25-.34-.52-.53-.52-.85,0-.59,1.84-1.22,3.5-1.22s1.7,2.4,1.7,3.57C24.08,17,22.63,19.72,22.63,23.29Z"/><path d="M34.69,21.51a2.88,2.88,0,0,1-2.31,1.67,2.34,2.34,0,0,1-.86-.19,3.34,3.34,0,0,1-3,1.42c-2.61,0-4-1.8-4-4.44,0-2.83,1.45-4.93,4.27-4.93,2.56,0,3.67,2.58,3.67,4.84a6.08,6.08,0,0,1-.4,2.2.91.91,0,0,0,.44.13c.63,0,1.12-.7,1.49-1.39a13.23,13.23,0,0,0,1-2.06c.08-.17.17-.31.23-.31s.23.5.23.76A6.37,6.37,0,0,1,34.69,21.51Zm-4.77-4.8c-1,0-1.49,1.25-1.49,3.05s.38,3.07,1.49,3.07a.94.94,0,0,0,.78-.51,3.53,3.53,0,0,1-.71-2.2,2,2,0,0,1,1-2C30.8,17.3,30.43,16.71,29.92,16.71Z"/><path d="M41,22.42a4,4,0,0,1-3.22,1.93c-1.8,0-4-1.19-4-5.65,0-5.84,2.59-9.24,4.54-9.24,1,0,2.12.48,2.12,2.75,0,1.73-1,5.52-3.13,6.66.06,2.12.59,3.83,1.47,3.83.69,0,1.36-.61,2-1.74a23.48,23.48,0,0,0,1-2.13c.13-.24.19-.38.26-.38s.23.57.23.89A6.17,6.17,0,0,1,41,22.42Zm-2-11.17c-.61,0-1.74,2.71-1.74,6.37v.15c1.55-1.4,2.12-4.48,2.12-6C39.31,11.34,39.12,11.25,38.93,11.25Z"/><path d="M47.58,22.34a4.11,4.11,0,0,1-3.63,2c-1.83,0-3.23-1.08-3.23-3.51,0-1.12.38-2.69.38-3.26,0-.15-.24-.36-.4-.57a1,1,0,0,1-.26-.57c0-.59,2.33-1.33,4-1.33.76,0,1.22.19,1.22.48a13,13,0,0,1-.88,3.07A11.68,11.68,0,0,0,44,22.21a.91.91,0,0,0,.82,1c.84,0,1.66-1.08,2.1-1.76a18.7,18.7,0,0,0,1.41-2.81c.06-.13.13-.21.17-.21s.25.38.25.82A6.3,6.3,0,0,1,47.58,22.34Zm-4.66-8.29c-.8,0-1.85-.36-1.85-1.23,0-1.2,1.75-1.9,2.88-1.9.82,0,1.87.34,1.87,1.22C45.82,13.33,44.06,14.05,42.92,14.05Z"/><path d="M72,21c-.84,1.38-3,3-4.42,2.63A3.32,3.32,0,0,1,65.07,22a2.19,2.19,0,0,1-2.33,1.6c-2.2,0-3.21-1.76-3.21-4.33,0-4.37,1.76-6.19,4.2-6.19a2,2,0,0,1,2.11,1.65,5.6,5.6,0,0,1,2.43-.78c.44,0,.52.11.52.65S67.52,17.46,67.52,21c0,1.11,1.26,1,1.48.77,1-1,4-3.8,4-3.8A5.59,5.59,0,0,1,72,21Zm-7.78-6.65c-.66,0-1.57,2-1.57,4.78,0,1.95.29,3,.93,3,.92,0,1-1.93,1-2.41a26,26,0,0,1,.25-3.28C65.05,15,64.7,14.35,64.22,14.35Z"/><path d="M86.11,21.14a5,5,0,0,1-4.54,2.58c-2.81,0-5-1.43-5-4.85,0-3.81,2.44-5.82,4.11-5.82s3.1.93,3.1,2.42c0,2-1,4.42-2.46,4.42a1.86,1.86,0,0,1-1.17-.37c.18,2.1,1,3.12,2.07,3.12s2.49-1.15,3.23-2.43a24.7,24.7,0,0,0,1.39-3c.07-.17.13-.28.18-.28s.26.24.26,1A7.66,7.66,0,0,1,86.11,21.14ZM82,14.72c-.66,0-1.81,1-1.94,3.37a1.31,1.31,0,0,0,1,.69c.92,0,1.6-2,1.6-3.24C82.65,14.91,82.3,14.72,82,14.72Z"/><path d="M58.08,19.79A3.77,3.77,0,0,1,55.44,16v3.65c.31-3.29,2.23-7.2,5.68-8.06,1.84-.46,4-.06,5.89-.15a9.7,9.7,0,0,0,4.3-1.31c.53-.27-.49-3.46,0-3.71C68.41,7.93,66,7.67,62.79,7.76s-5,1.73-6.34,4.54c-1.52,3.2-2.22,9.53,1.63,11.2-.43-.19.47-3.51,0-3.71Z"/><path d="M56.92,10.9a7.25,7.25,0,0,0-7.2,1.88c-1.44,1.49-1.43,3.34-1.43,5.26,0,1.57-.17,3.62,1.17,4.76a4.29,4.29,0,0,0,3.72.58,5.19,5.19,0,0,0,2.2-2.49c.53-1-.51-2.78,0-3.73-.8,1.49-1.88,2.88-3.74,2.65a3.43,3.43,0,0,1-3.32-3.38v3.48c.4-4.35,4.74-6.17,8.61-5.28-.24-.06.3-3.67,0-3.73Z"/><path class="cls-1" d="M69.16,23l.77-1.46a14.59,14.59,0,0,0,1-1.17l.59-.72.45-.55.43-.51.65-.82.83-1.06.72-.93.21-.26a1.53,1.53,0,0,1-.27,0,6.84,6.84,0,0,1-1.76-.31l-.34-.09-.28-.09a1.6,1.6,0,0,0-.45-.07q-.66,0-.66.72a1.14,1.14,0,0,0,.15.55l-1.07.93a3.38,3.38,0,0,1,0-.46,2.66,2.66,0,0,1,.72-1.85,2.23,2.23,0,0,1,1.68-.79,3.66,3.66,0,0,1,.66.08l.54.09.45.06a7.1,7.1,0,0,0,1.07.13,4.05,4.05,0,0,0,1.46-.3l-.81,1.46c-.46.5-.92,1-1.4,1.61l-.73.91-.65.79-.43.52-.39.46c-.36.44-.56.68-.6.74l-.45.63c0,.07-.16.21-.34.42.34,0,.62-.05.84-.05a9.39,9.39,0,0,1,1.33.1l.6.08.57.07a5.07,5.07,0,0,0,.68,0,1.49,1.49,0,0,0,1.26-.53.44.44,0,0,1,.16.27,1.21,1.21,0,0,1-.53.9,1.77,1.77,0,0,1-1.12.44A6.42,6.42,0,0,1,74,23l-.61-.05-.54,0c-.46,0-.9-.06-1.33-.06A13.91,13.91,0,0,0,69.16,23Z"/></svg>